# xmcd
#
# Track frame offsets: 
#        150
#        11998
#        21300
#        32563
#        51873
#        61802
#        73173
#        86458
#        100406
#        110605
#        121404
#        133812
#        143493
#
# Disc length: 2152 seconds
#
# Revision: 0
# Processed by: cddbd v1.5.2PL0 Copyright (c) Steve Scherf et al.
# Submitted via: ExactAudioCopy v0.99pb3
#
DISCID=b708660d
DTITLE=Uncle Tom Turner - Texas Blues 
DYEAR=2007
DGENRE=Blues
TTITLE0=Roll, Roll, Roll
TTITLE1=Just A Little Bit
TTITLE2=Divorce Court
TTITLE3=Drivin' Wheel
TTITLE4=You're A Humbugging Me
TTITLE5=I Got It Made
TTITLE6=They Call Me Lazy
TTITLE7=Allons Dancez
TTITLE8=Shoulder Holster
TTITLE9=Hey Senorita
TTITLE10=T-Bone Intentions
TTITLE11=I-10 Hurricane Blues
TTITLE12=Ooh Poo Pa Doo
EXTD=
EXTT0=
EXTT1=
EXTT2=
EXTT3=
EXTT4=
EXTT5=
EXTT6=
EXTT7=
EXTT8=
EXTT9=
EXTT10=
EXTT11=
EXTT12=
PLAYORDER=
